<?xml version="1.0" standalone="no"?>
<!DOCTYPE svg PUBLIC "-//W3C//DTD SVG 20010904//EN"
 "http://www.w3.org/TR/2001/REC-SVG-20010904/DTD/svg10.dtd">
<svg version="1.0" xmlns="http://www.w3.org/2000/svg"
 width="794.000000pt" height="794.000000pt" viewBox="0 0 794.000000 794.000000"
 preserveAspectRatio="xMidYMid meet">

<g transform="translate(0.000000,794.000000) scale(0.100000,-0.100000)"
fill="#fff" stroke="none">
<path d="M6894 5181 c-21 -16 -68 -59 -104 -96 -82 -84 -125 -106 -392 -199
-311 -109 -350 -124 -603 -236 -351 -156 -638 -270 -681 -270 -8 0 -22 17 -33
38 -58 113 -185 207 -347 258 -71 22 -131 47 -161 69 -26 19 -72 47 -102 61
-56 28 -81 29 -286 10 -16 -2 -75 5 -130 15 -186 33 -250 21 -357 -65 -49 -40
-88 -61 -146 -80 -108 -36 -244 -128 -357 -240 -95 -94 -163 -191 -256 -360
-30 -54 -66 -112 -81 -128 -26 -28 -27 -28 -150 -28 -134 0 -250 12 -368 37
-107 24 -286 19 -525 -12 -141 -18 -269 -28 -435 -32 l-235 -6 -62 32 c-128
64 -190 22 -181 -124 7 -112 44 -170 224 -355 163 -167 179 -191 369 -537 l78
-143 2435 0 c2392 0 2434 0 2421 19 -8 11 -69 83 -136 160 -68 78 -123 143
-123 146 0 3 15 14 33 25 54 33 146 131 202 215 131 197 239 472 311 787 40
176 50 203 119 301 100 143 177 374 200 597 16 150 -46 212 -141 141z m80 -39
c6 -10 -21 -237 -33 -277 -18 -60 -44 -109 -123 -238 -99 -162 -138 -238 -173
-342 -59 -168 -161 -418 -221 -537 -25 -49 -42 -94 -38 -100 4 -6 3 -8 -3 -5
-6 4 -13 1 -16 -6 -7 -20 -156 -217 -196 -260 -20 -22 -57 -57 -82 -78 l-46
-38 -57 64 -57 64 64 70 c85 92 155 186 269 361 89 136 132 207 91 150 -153
-213 -336 -429 -425 -502 l-44 -36 -31 24 c-51 40 -149 84 -216 97 l-62 13
-17 51 c-42 125 -48 249 -17 349 43 138 116 251 206 317 137 100 438 228 818
346 72 22 147 52 167 66 45 30 52 31 38 4 -7 -11 -10 -23 -7 -25 2 -3 12 14
21 37 9 23 15 44 12 46 -2 2 -17 -2 -33 -10 -93 -48 -333 -125 -585 -187 -339
-85 -389 -100 -492 -153 -208 -107 -294 -286 -251 -525 10 -53 33 -146 52
-205 19 -60 33 -110 31 -112 -2 -2 -24 -6 -50 -10 l-47 -7 -27 58 c-29 65 -74
193 -124 354 -18 58 -35 109 -38 114 -3 5 -1 7 4 4 5 -4 10 18 11 46 3 78 33
127 114 186 38 27 71 50 74 50 2 0 35 20 72 44 98 63 167 96 358 172 189 75
271 116 267 134 -1 6 2 9 7 5 6 -3 41 10 78 29 37 19 140 60 228 91 245 85
287 108 404 219 96 93 114 105 125 88z m-2937 -362 c103 -33 138 -36 260 -19
117 17 154 4 249 -82 66 -60 86 -72 157 -94 117 -37 222 -91 278 -144 89 -85
339 -608 339 -711 0 -18 4 -29 10 -25 6 3 10 1 10 -4 0 -6 -4 -11 -10 -11 -5
0 -10 -18 -10 -40 0 -37 -30 -105 -47 -105 -9 0 -83 -81 -110 -121 -34 -48
-109 -195 -123 -239 -19 -60 -65 -147 -89 -169 -12 -11 -21 -25 -21 -33 0 -8
-4 -12 -9 -9 -5 3 -14 0 -20 -8 -19 -23 -124 -65 -227 -91 -137 -35 -257 -33
-179 3 14 7 34 12 45 12 23 0 35 16 19 25 -27 18 -92 5 -156 -30 l-66 -36
-511 3 c-397 3 -519 7 -546 17 -19 8 -66 25 -105 39 -138 50 -175 102 -183
254 -4 85 -1 108 22 185 27 85 82 201 111 229 7 8 22 24 32 37 26 32 91 80
138 102 89 41 276 29 395 -26 57 -26 71 -38 107 -92 42 -62 69 -139 83 -232
l8 -50 1 60 c3 170 -92 330 -240 402 -213 103 -428 42 -561 -160 -46 -70 -110
-101 -162 -81 -22 8 -21 78 3 185 23 102 52 181 101 274 47 88 90 206 93 256
1 20 6 35 10 32 5 -3 7 1 5 8 -6 29 54 109 127 168 96 77 181 124 291 161 99
34 110 40 188 108 105 92 145 99 293 52z m1899 -155 c-11 -8 -27 -15 -35 -15
-9 1 -2 7 14 15 39 18 44 18 21 0z m-190 -80 c-11 -8 -25 -15 -30 -15 -6 1 0
7 14 15 32 19 40 18 16 0z m-117 -49 c-2 -2 -15 -9 -29 -15 -24 -11 -24 -11
-6 3 16 13 49 24 35 12z m1151 -30 c0 -2 -8 -10 -17 -17 -16 -13 -17 -12 -4 4
13 16 21 21 21 13z m-1240 -16 c-8 -5 -19 -10 -25 -10 -5 0 -3 5 5 10 8 5 20
10 25 10 6 0 3 -5 -5 -10z m-315 -170 c3 -5 1 -10 -4 -10 -6 0 -11 5 -11 10 0
6 2 10 4 10 3 0 8 -4 11 -10z m-2820 -394 c61 -14 104 -25 98 -25 -7 -1 12
-25 42 -55 30 -30 55 -57 55 -60 0 -3 -17 5 -38 19 -114 75 -444 75 -887 0
-217 -37 -259 -39 -355 -22 -164 29 -170 30 -170 8 0 -23 59 -98 130 -166 61
-57 58 -49 -18 53 -30 40 -53 75 -50 78 3 2 36 0 74 -5 131 -18 285 -22 388
-9 83 10 94 14 61 18 -22 3 70 6 205 8 308 4 438 -12 499 -62 95 -75 185 -225
201 -331 11 -79 14 -245 3 -245 -3 0 -29 22 -58 49 -85 80 -209 131 -321 131
-65 0 -187 -31 -254 -65 -29 -15 -74 -47 -101 -72 l-48 -45 -88 83 -88 83 83
-85 83 -85 -8 -77 -8 -76 -66 28 c-92 39 -153 89 -212 173 -96 137 -248 319
-367 439 -41 42 -93 98 -115 124 -22 26 -48 56 -58 66 -10 12 -20 43 -24 79
-7 75 6 83 74 43 l48 -28 225 1 c219 1 252 4 690 58 79 10 268 -5 375 -28z
m389 -176 c5 -20 3 -19 -8 5 -7 17 -16 41 -20 55 -5 20 -3 19 8 -5 7 -16 16
-41 20 -55z m3707 33 c-8 -15 -10 -15 -11 -2 0 17 10 32 18 25 2 -3 -1 -13 -7
-23z m-4513 10 c-10 -2 -26 -2 -35 0 -10 3 -2 5 17 5 19 0 27 -2 18 -5z m-90
-10 c-10 -2 -26 -2 -35 0 -10 3 -2 5 17 5 19 0 27 -2 18 -5z m547 -11 c-3 -3
-11 0 -18 7 -9 10 -8 11 6 5 10 -3 15 -9 12 -12z m-608 2 c-3 -3 -12 -4 -19
-1 -8 3 -5 6 6 6 11 1 17 -2 13 -5z m1867 -13 c4 -5 -3 -7 -14 -4 -23 6 -26
13 -6 13 8 0 17 -4 20 -9z m1670 -107 c3 -8 2 -12 -4 -9 -6 3 -10 10 -10 16 0
14 7 11 14 -7z m-4263 -31 c13 -16 12 -17 -3 -4 -10 7 -18 15 -18 17 0 8 8 3
21 -13z m4239 -67 c0 -2 -7 -7 -16 -10 -8 -3 -12 -2 -9 4 6 10 25 14 25 6z
m342 -47 c33 -11 86 -36 117 -56 71 -45 199 -176 273 -279 62 -87 141 -214
136 -219 -5 -5 -58 -8 -100 -7 -36 2 -38 4 -38 35 0 45 -47 163 -86 216 -2 1
-8 0 -14 -4 -8 -5 -6 -14 7 -29 28 -31 53 -73 53 -88 0 -7 -12 7 -26 32 -14
25 -33 53 -41 62 -12 14 -13 21 -4 31 9 11 8 17 -4 27 -8 7 -15 9 -15 6 0 -4
-10 4 -22 18 -37 41 -165 85 -284 97 -90 10 -110 9 -156 -6 -85 -27 -134 -54
-167 -91 -33 -36 -33 -41 2 -22 12 6 -7 -17 -43 -52 -36 -35 -68 -63 -72 -62
-4 1 -4 -6 -1 -15 4 -10 2 -14 -4 -10 -14 9 -24 -30 -17 -63 4 -20 3 -22 -5
-10 -9 13 -11 13 -11 -2 0 -10 -10 -26 -21 -37 l-22 -20 -17 22 c-40 51 -39
106 1 203 67 161 179 276 314 325 70 26 188 25 267 -2z m658 7 c0 -2 -8 -10
-17 -17 -16 -13 -17 -12 -4 4 13 16 21 21 21 13z m-120 -140 c0 -2 -8 -10 -17
-17 -16 -13 -17 -12 -4 4 13 16 21 21 21 13z m-1102 -36 c-7 -11 -17 -20 -22
-20 -5 0 -1 9 9 20 10 11 20 20 22 20 2 0 -2 -9 -9 -20z m577 -15 c6 -2 -25
-3 -69 -3 -43 0 -73 4 -67 8 11 6 114 3 136 -5z m-195 -21 c-56 -17 -75 -17
-35 1 17 8 41 14 55 14 18 0 12 -5 -20 -15z m270 6 c24 -15 7 -18 -30 -4 -31
11 -32 13 -10 13 14 0 32 -3 40 -9z m-353 -29 c-7 -2 -19 -9 -27 -16 -8 -6
-24 -15 -35 -19 -18 -6 -19 -5 -3 7 10 8 15 17 11 20 -3 4 3 7 15 7 13 0 22 6
22 15 0 13 2 14 14 3 10 -9 11 -14 3 -17z m693 9 c-8 -5 -19 -10 -25 -10 -5 0
-3 5 5 10 8 5 20 10 25 10 6 0 3 -5 -5 -10z m-262 -17 c20 -9 43 -17 49 -17 7
-1 13 -6 14 -11 0 -6 8 -19 17 -30 16 -19 16 -19 -3 -4 -11 9 -45 31 -75 48
-60 34 -61 41 -2 14z m-146 -24 c72 -15 169 -63 208 -104 l33 -34 -38 6 c-26
4 -36 3 -31 -5 3 -6 1 -14 -5 -18 -8 -4 -9 -3 -5 4 11 19 -11 14 -54 -10 l-38
-22 -46 42 c-42 39 -50 42 -100 42 -45 0 -62 -6 -106 -35 -58 -39 -92 -44
-112 -17 -7 10 -28 27 -47 39 l-34 21 39 26 c94 62 227 88 336 65z m-3261 -41
c41 -20 90 -53 108 -72 l35 -36 -47 0 c-29 0 -59 -8 -79 -20 -18 -11 -36 -20
-39 -20 -4 0 -28 21 -54 46 -46 46 -47 46 -100 42 -38 -3 -70 -14 -105 -36
-28 -18 -58 -32 -67 -32 -9 0 -33 16 -54 35 -22 19 -46 35 -54 35 -27 0 -16
15 34 42 76 43 144 58 252 55 87 -2 101 -5 170 -39z m2867 -78 c-7 -11 -17
-20 -22 -20 -5 0 -1 9 9 20 10 11 20 20 22 20 2 0 -2 -9 -9 -20z m-3343 -10
c8 -13 -5 -13 -25 0 -13 8 -13 10 2 10 9 0 20 -4 23 -10z m328 -7 c-13 -2 -33
-2 -45 0 -13 2 -3 4 22 4 25 0 35 -2 23 -4z m3131 -76 c3 3 6 4 6 0 0 -3 -4
-8 -9 -12 -11 -6 -41 21 -41 37 0 6 8 1 19 -10 10 -12 21 -19 25 -15z m-3446
1 c17 -14 15 -39 -8 -93 -21 -49 -34 -51 -72 -8 -31 34 -33 69 -4 98 27 26 53
27 84 3z m4072 -16 c0 -7 -4 -10 -10 -7 -5 3 -10 16 -10 28 0 18 2 19 10 7 5
-8 10 -21 10 -28z m-3755 16 c30 -13 32 -40 9 -98 -19 -47 -36 -50 -69 -14
-31 33 -35 97 -7 113 22 14 36 13 67 -1z m2762 -20 c-3 -7 -5 -2 -5 12 0 14 2
19 5 13 2 -7 2 -19 0 -25z m282 7 c13 -13 13 -22 -3 -70 -20 -65 -41 -71 -80
-24 -31 37 -33 72 -5 100 23 23 62 20 88 -6z m322 15 c10 -6 19 -21 19 -33 0
-28 -36 -107 -48 -107 -16 0 -62 52 -68 77 -14 53 45 91 97 63z m300 0 c29
-16 26 -84 -6 -115 -34 -35 -50 -31 -69 18 -20 53 -20 66 1 89 18 20 45 23 74
8z m-3551 -23 c22 -4 21 -5 -4 -4 -17 1 -31 9 -33 17 -3 10 -2 11 4 4 4 -7 19
-14 33 -17z m195 2 c22 -18 26 -27 21 -52 -7 -36 -42 -77 -66 -77 -19 0 -35
31 -45 83 -6 32 -4 37 22 51 36 20 36 20 68 -5z m-518 -5 c-3 -3 -12 -4 -19
-1 -8 3 -5 6 6 6 11 1 17 -2 13 -5z m3340 -10 c-3 -3 -12 -4 -19 -1 -8 3 -5 6
6 6 11 1 17 -2 13 -5z m-395 -89 c3 -13 1 -22 -3 -19 -9 5 -13 44 -5 44 2 0 6
-11 8 -25z m-195 -1 c-3 -3 -12 -4 -19 -1 -8 3 -5 6 6 6 11 1 17 -2 13 -5z
m367 -10 c3 -8 2 -12 -4 -9 -6 3 -10 10 -10 16 0 14 7 11 14 -7z m1040 1 c3
-8 1 -15 -4 -15 -6 0 -10 7 -10 15 0 8 2 15 4 15 2 0 6 -7 10 -15z m-1461 -2
c-7 -2 -21 -2 -30 0 -10 3 -4 5 12 5 17 0 24 -2 18 -5z m1247 3 c0 -3 -4 -8
-10 -11 -5 -3 -10 -1 -10 4 0 6 5 11 10 11 6 0 10 -2 10 -4z"/>
<path d="M4215 4412 c-22 -11 -49 -29 -60 -42 -18 -21 -17 -20 19 4 61 41 121
36 264 -21 l117 -47 145 -1 c152 -2 181 -8 237 -51 43 -32 43 -14 1 22 -56 46
-94 56 -248 64 -135 7 -152 10 -240 45 -117 46 -180 53 -235 27z"/>
<path d="M3712 4289 c-13 -5 -49 -29 -80 -53 -83 -63 -94 -68 -214 -77 -81 -6
-121 -14 -162 -32 -67 -31 -152 -117 -194 -195 -37 -70 -43 -107 -7 -44 54 96
145 180 227 211 15 6 77 14 138 20 123 10 136 16 240 105 59 50 84 61 130 54
24 -4 27 -2 19 9 -13 15 -63 16 -97 2z"/>
<path d="M4608 4047 c-104 -39 -204 -131 -257 -235 -41 -82 -39 -86 8 -15 101
151 222 224 367 224 89 0 162 -26 245 -87 66 -49 60 -27 -9 31 -73 63 -137 88
-232 92 -55 2 -98 -2 -122 -10z"/>
<path d="M4635 3811 c-116 -30 -219 -165 -295 -387 -23 -67 -21 -72 60 -124
172 -110 368 -89 531 58 76 68 129 154 129 209 0 41 -5 48 -67 109 -111 109
-254 163 -358 135z m159 -117 c9 -8 16 -26 16 -39 0 -22 -23 -55 -39 -55 -19
0 -43 29 -43 53 0 50 35 72 66 41z"/>
<path d="M3305 3572 c-22 -11 -61 -41 -86 -69 -60 -64 -83 -132 -84 -240 l0
-82 49 -50 c27 -27 77 -65 110 -83 57 -31 67 -33 156 -33 83 0 102 3 151 27
67 34 160 124 190 185 33 69 17 108 -85 209 -105 104 -185 145 -289 151 -56 3
-81 0 -112 -15z m253 -134 c25 -25 5 -98 -28 -98 -18 0 -40 32 -40 59 0 30 16
51 40 51 9 0 21 -5 28 -12z"/>
<path d="M5035 3412 c-45 -47 -117 -109 -168 -143 -99 -66 -89 -79 20 -24 77
38 161 119 207 198 16 26 27 49 25 51 -2 1 -40 -35 -84 -82z"/>
<path d="M4015 3139 c-32 -28 -65 -76 -65 -94 0 -4 15 10 34 29 60 64 132 81
199 47 46 -23 48 -10 4 23 -51 39 -124 37 -172 -5z"/>
<path d="M3115 3033 c63 -56 156 -94 245 -100 41 -3 86 0 100 5 23 9 21 10
-25 16 -91 12 -208 46 -278 81 -39 19 -72 35 -76 35 -3 -1 12 -17 34 -37z"/>
<path d="M5220 3115 c-20 -24 -6 -28 15 -5 10 11 13 20 8 20 -6 0 -16 -7 -23
-15z"/>
</g>
</svg>
