<?xml version="1.0" standalone="no"?>
<!DOCTYPE svg PUBLIC "-//W3C//DTD SVG 20010904//EN"
 "http://www.w3.org/TR/2001/REC-SVG-20010904/DTD/svg10.dtd">
<svg version="1.0" xmlns="http://www.w3.org/2000/svg"
 width="794.000000pt" height="732.000000pt" viewBox="0 0 794.000000 732.000000"
 preserveAspectRatio="xMidYMid meet">

<g transform="translate(0.000000,732.000000) scale(0.100000,-0.100000)"
fill="#fff" stroke="none">
<path d="M3845 5219 c-144 -22 -319 -62 -411 -93 -140 -48 -222 -85 -531 -240
-150 -75 -282 -136 -293 -136 -12 0 -84 16 -160 35 -275 69 -1064 228 -1270
256 -183 25 -310 22 -412 -10 -117 -37 -158 -90 -158 -203 0 -105 43 -157 338
-412 57 -49 116 -108 131 -130 16 -23 81 -135 146 -250 135 -243 200 -334 298
-418 174 -150 331 -226 667 -323 l185 -53 6 -95 c5 -93 7 -99 77 -244 40 -81
72 -153 72 -158 0 -6 -38 -48 -84 -94 -107 -107 -139 -170 -144 -286 -3 -77
-2 -83 37 -159 l41 -80 0 -167 c0 -92 4 -179 10 -193 18 -48 54 -61 157 -58
73 3 99 0 120 -13 39 -24 93 -93 93 -119 0 -12 -25 -109 -55 -214 -67 -236
-79 -304 -72 -403 7 -113 19 -131 92 -145 127 -26 360 -36 725 -32 201 3 538
1 750 -4 397 -10 543 -4 692 27 108 23 235 65 251 83 8 10 19 37 25 62 24 102
24 155 -3 365 -21 171 -25 243 -23 390 l3 180 75 12 c99 16 162 37 235 78 144
80 229 204 295 432 23 79 18 76 129 98 46 10 116 77 137 131 24 62 14 115 -33
181 -81 114 -81 115 -73 249 3 50 -21 89 -66 104 -24 8 -185 40 -203 40 -3 0
-1 4 5 9 5 5 83 25 174 46 254 56 505 132 612 186 150 75 257 165 431 364 73
83 204 225 293 316 165 170 227 248 271 346 49 107 16 233 -75 286 -32 19 -43
19 -270 8 -130 -7 -523 -16 -872 -22 -349 -5 -669 -14 -710 -20 -147 -21 -228
1 -339 90 -91 73 -209 143 -358 210 -160 73 -280 112 -458 150 -233 50 -363
60 -500 40z m317 -159 c76 -11 164 -26 197 -35 186 -48 447 -164 711 -316 191
-109 197 -111 335 -116 66 -3 516 2 999 11 613 11 883 12 892 5 10 -8 10 -18
-1 -49 -28 -80 -98 -168 -294 -370 -111 -115 -249 -264 -306 -332 -106 -126
-175 -188 -280 -250 -106 -64 -286 -127 -475 -167 -167 -35 -553 -71 -564 -53
-3 6 10 48 30 94 72 165 86 212 94 306 6 69 15 108 37 155 50 106 171 221 300
286 110 56 181 71 468 100 258 27 467 74 439 100 -16 16 -582 -18 -736 -45
-129 -22 -252 -59 -347 -105 -140 -69 -271 -219 -271 -311 0 -18 7 -68 15
-111 18 -97 19 -157 1 -222 -49 -184 -199 -298 -471 -357 -38 -8 -134 -13
-262 -13 -112 0 -203 -3 -203 -7 0 -4 12 -14 27 -22 l28 -14 -45 -6 c-182 -25
-1046 -58 -1086 -42 -15 6 -6 14 49 42 61 31 85 54 55 54 -6 0 -89 -19 -182
-42 -146 -36 -187 -43 -276 -43 -95 0 -110 3 -155 27 -58 30 -99 72 -179 179
-31 43 -63 79 -71 83 -24 9 -27 -11 -6 -52 11 -22 17 -42 14 -46 -24 -24 -389
42 -577 105 -236 79 -364 155 -508 300 -94 94 -133 155 -269 413 -115 220
-140 252 -327 411 -121 103 -209 216 -195 250 2 7 28 23 56 36 74 32 152 30
422 -15 603 -98 920 -162 1105 -221 161 -51 261 -70 322 -61 31 5 108 43 254
128 298 172 508 265 707 313 201 48 325 54 529 25z m1238 -1822 c43 -71 18
-140 -68 -195 -129 -81 -158 -102 -181 -133 -26 -36 -124 -85 -416 -210 -93
-40 -250 -113 -348 -162 -355 -177 -613 -226 -892 -169 -60 13 -114 27 -119
32 -6 5 20 9 65 9 40 0 81 4 89 9 23 15 17 157 -13 301 -44 215 -44 215 -10
249 34 33 94 52 223 70 47 7 175 25 285 42 151 22 262 32 450 39 344 13 665
50 782 90 48 17 94 37 103 45 21 21 28 19 50 -17z m-2754 -19 c42 -45 187
-137 231 -147 21 -5 81 -5 133 -1 125 11 494 28 499 23 2 -2 -10 -19 -27 -38
-16 -19 -36 -52 -43 -73 -22 -61 -15 -219 15 -362 14 -68 24 -126 21 -129 -8
-8 -138 -2 -180 9 -151 38 -309 111 -416 190 -176 131 -319 333 -319 452 0 40
30 107 48 107 5 0 21 -14 38 -31z m3050 -209 c64 -32 70 -70 14 -103 -52 -31
-41 -44 74 -91 42 -18 42 -12 19 -130 l-8 -39 -89 -18 c-107 -22 -230 -78
-309 -142 -31 -26 -59 -47 -61 -47 -2 0 -12 24 -22 53 -13 36 -18 83 -19 152
l0 100 58 -3 c70 -3 97 9 97 45 0 29 -25 63 -46 63 -68 0 60 126 166 163 60
21 76 21 126 -3z m-471 -167 c-11 -29 -24 -169 -20 -205 25 -188 50 -320 61
-325 16 -6 76 37 118 85 49 56 141 88 166 58 28 -34 -12 -151 -83 -244 -73
-94 -158 -142 -252 -143 -89 -1 -142 26 -174 90 -26 51 -83 250 -77 267 3 8
17 19 31 26 23 10 25 16 25 83 0 112 20 157 113 248 77 76 106 94 92 60z
m-365 -200 c0 -29 -161 -341 -223 -435 -65 -96 -196 -229 -282 -284 -31 -19
-85 -48 -121 -64 -72 -33 -82 -55 -38 -89 35 -27 64 -26 122 3 168 85 296 232
431 495 85 166 97 170 94 33 -2 -91 -16 -155 -77 -362 -26 -87 -39 -153 -43
-219 -6 -93 -6 -93 15 -82 36 19 69 91 93 201 33 157 47 160 66 17 7 -51 18
-267 24 -480 11 -333 10 -390 -2 -401 -30 -30 -287 -70 -514 -82 -132 -7 -399
16 -419 36 -9 9 15 669 35 954 12 171 41 360 59 381 7 8 27 15 44 15 94 0 226
65 386 190 120 94 195 139 283 170 66 23 67 24 67 3z m-2012 -65 c67 -34 128
-68 134 -75 9 -11 8 -47 -1 -147 -14 -156 -19 -176 -38 -176 -23 0 -154 94
-209 150 -74 74 -107 147 -102 221 5 70 29 103 68 94 14 -3 80 -33 148 -67z
m-245 -153 c42 -75 61 -121 66 -160 4 -30 10 -57 13 -60 3 -3 32 -12 64 -21
104 -27 224 -111 224 -157 0 -30 -54 -107 -76 -107 -25 0 -194 119 -254 180
-99 99 -139 174 -140 264 0 50 27 166 39 166 3 0 32 -47 64 -105z m557 39
c102 -23 110 -34 110 -144 0 -49 -5 -113 -11 -142 -16 -77 -65 -170 -117 -223
-44 -45 -119 -92 -129 -81 -3 3 2 32 11 63 14 44 19 110 22 278 3 121 7 230
10 243 5 26 11 27 104 6z m472 -243 c4 -3 -11 -76 -32 -161 -71 -278 -100
-501 -100 -755 1 -77 5 -171 10 -210 4 -38 11 -96 15 -127 l8 -58 -144 0
c-221 0 -553 35 -583 61 -9 8 -9 179 0 202 6 15 36 35 203 133 149 88 263 185
301 258 48 89 8 71 -128 -59 -92 -88 -154 -124 -209 -125 -85 0 -95 96 -31
305 29 95 36 110 53 107 129 -20 161 -10 213 62 42 58 59 104 93 245 17 69 32
128 34 131 5 8 288 0 297 -9z m352 1 c3 -4 0 -27 -5 -51 -18 -79 -39 -373 -49
-686 -20 -569 -18 -555 -47 -566 -13 -5 -67 -9 -118 -9 -94 0 -95 0 -109 29
-8 15 -25 75 -38 132 -19 92 -22 132 -21 339 0 166 5 270 17 355 19 129 89
419 107 441 7 9 45 14 117 17 59 1 115 4 124 5 9 1 19 -2 22 -6z m-1434 -140
c0 -5 24 -35 53 -68 79 -87 82 -95 55 -151 -22 -46 -25 -48 -68 -51 -42 -3
-47 0 -64 29 -22 38 -26 154 -6 213 10 32 30 50 30 28z m271 -217 c27 -14 53
-33 56 -41 7 -19 -68 -94 -95 -94 -28 0 -55 70 -47 120 8 48 18 49 86 15z"/>
<path d="M1240 4742 c0 -5 53 -36 118 -69 113 -59 204 -96 507 -205 282 -101
434 -200 526 -341 49 -75 65 -126 84 -262 17 -121 38 -205 62 -241 18 -28 37
-22 27 9 -10 31 -6 101 12 212 30 189 30 226 1 289 -37 80 -110 169 -187 227
-70 53 -149 86 -336 144 -66 20 -200 63 -299 95 -161 53 -488 150 -507 150 -5
0 -8 -4 -8 -8z"/>
<path d="M3420 4602 c0 -10 333 -342 343 -342 15 0 6 37 -23 98 -51 109 -169
207 -288 241 -17 5 -32 6 -32 3z"/>
<path d="M3940 4568 c0 -41 35 -257 44 -265 2 -2 9 4 17 13 10 12 14 44 14
103 0 88 -20 148 -59 180 -14 12 -16 8 -16 -31z"/>
<path d="M4382 4553 c-50 -100 -114 -253 -109 -265 6 -18 79 62 110 121 14 25
30 70 37 99 19 84 -4 112 -38 45z"/>
<path d="M4613 4281 c-28 -9 -67 -29 -86 -44 -34 -26 -84 -94 -75 -103 3 -2
36 11 75 30 39 19 94 42 123 50 74 22 203 21 279 -3 70 -22 155 -81 177 -122
19 -38 11 -37 -39 6 -66 57 -135 78 -252 78 -81 -1 -114 -6 -173 -26 -218 -76
-362 -230 -365 -393 -2 -115 41 -171 161 -210 82 -26 307 -16 426 20 100 30
171 61 238 106 69 46 82 71 88 170 4 75 7 85 24 85 94 0 -37 206 -188 295
-134 78 -294 102 -413 61z m47 -296 c19 -22 5 -43 -36 -54 -43 -12 -88 -5
-106 16 -10 13 -8 19 11 34 29 24 113 26 131 4z"/>
<path d="M3030 4270 c-121 -32 -216 -84 -291 -159 -65 -66 -103 -131 -75 -131
8 0 66 43 130 94 155 126 221 159 336 164 117 6 170 -11 305 -97 101 -65 145
-84 145 -63 0 19 -60 101 -95 129 -65 54 -136 75 -265 79 -92 3 -130 0 -190
-16z"/>
<path d="M3065 4144 c-113 -24 -212 -68 -263 -117 -82 -78 -100 -188 -47 -286
74 -135 286 -235 500 -236 107 0 169 13 250 53 115 56 145 98 145 203 0 79
-40 166 -107 231 -57 56 -175 121 -258 142 -54 15 -172 20 -220 10z m33 -143
c24 -15 9 -45 -30 -58 -25 -8 -47 -9 -72 -2 -46 13 -54 28 -26 51 24 19 103
25 128 9z"/>
<path d="M3901 3837 c-51 -16 -108 -75 -116 -120 -12 -60 4 -81 72 -100 78
-22 93 -22 93 3 0 15 -13 26 -44 40 -51 21 -67 45 -55 77 16 43 114 71 182 52
21 -6 52 -23 70 -39 30 -27 31 -30 15 -46 -9 -9 -38 -29 -64 -43 -56 -30 -65
-48 -31 -56 37 -10 101 12 137 45 28 26 32 35 27 65 -13 82 -90 136 -193 134
-32 -1 -74 -6 -93 -12z"/>
<path d="M3840 3386 c-30 -7 -73 -21 -95 -31 l-40 -19 200 -7 c191 -6 286 -14
330 -26 18 -5 18 -4 6 11 -53 64 -272 103 -401 72z"/>
<path d="M0 20 c0 -20 7 -20 3970 -20 3963 0 3970 0 3970 20 0 20 -7 20 -3970
20 -3963 0 -3970 0 -3970 -20z"/>
</g>
</svg>
