<?xml version="1.0" standalone="no"?>
<!DOCTYPE svg PUBLIC "-//W3C//DTD SVG 20010904//EN"
 "http://www.w3.org/TR/2001/REC-SVG-20010904/DTD/svg10.dtd">
<svg version="1.0" xmlns="http://www.w3.org/2000/svg"
 width="225.000000pt" height="225.000000pt" viewBox="0 0 225.000000 225.000000"
 preserveAspectRatio="xMidYMid meet">

<g transform="translate(0.000000,225.000000) scale(0.100000,-0.100000)"
fill="#000000" stroke="none">
<path d="M142 1894 l3 -356 290 -170 c160 -93 296 -172 303 -175 9 -4 12 69
12 348 l-1 354 -181 105 c-100 58 -237 137 -305 177 l-123 72 2 -355z"/>
<path d="M820 1497 l0 -355 188 -110 c103 -61 238 -140 300 -176 l112 -65 -2
355 -3 356 -265 155 c-146 85 -279 163 -297 174 l-33 21 0 -355z"/>
<path d="M1788 1673 l-298 -176 0 -353 0 -354 48 27 c26 16 163 96 305 178
l257 150 0 353 c0 193 -3 352 -7 351 -5 0 -142 -80 -305 -176z"/>
<path d="M820 707 l0 -354 293 -171 c162 -95 297 -172 301 -172 3 0 5 158 4
352 l-3 352 -270 158 c-148 87 -282 165 -297 174 l-28 15 0 -354z"/>
</g>
</svg>
