<?xml version="1.0" standalone="no"?>
<!DOCTYPE svg PUBLIC "-//W3C//DTD SVG 20010904//EN"
 "http://www.w3.org/TR/2001/REC-SVG-20010904/DTD/svg10.dtd">
<svg version="1.0" xmlns="http://www.w3.org/2000/svg"
 width="1528.000000pt" height="1078.000000pt" viewBox="0 0 1528.000000 1078.000000"
 preserveAspectRatio="xMidYMid meet">

<g transform="translate(0.000000,1078.000000) scale(0.100000,-0.100000)"
fill="#000000" stroke="none">
<path d="M5970 9295 l0 -755 -1515 0 -1515 0 0 -760 0 -760 -760 0 -760 0 0
-775 0 -775 -650 0 c-612 0 -650 -1 -650 -17 0 -10 -8 -90 -17 -178 -21 -199
-24 -743 -5 -915 64 -586 181 -997 422 -1485 155 -314 281 -504 519 -785 129
-152 384 -409 506 -511 585 -488 1257 -811 2056 -988 225 -50 308 -64 564 -95
329 -40 545 -50 1000 -43 639 10 1016 45 1675 158 269 46 423 79 682 150 623
169 1040 326 1578 595 545 273 1036 601 1485 994 176 153 567 546 696 700 334
395 586 752 828 1175 124 215 329 628 425 855 l79 185 106 -3 c131 -5 420 13
561 34 123 18 388 84 510 126 175 61 454 223 598 347 94 81 237 242 313 353
55 81 219 383 219 404 0 9 -230 144 -318 189 -56 28 -202 81 -313 113 -362
108 -847 112 -1243 11 -86 -22 -95 -19 -96 31 -2 99 -87 366 -175 545 -181
371 -416 648 -840 991 -96 77 -121 93 -130 82 -72 -76 -189 -221 -240 -298
-276 -413 -366 -1102 -219 -1681 51 -203 127 -380 237 -549 l56 -84 -32 -20
c-135 -83 -468 -216 -680 -270 -371 -97 -472 -107 -1094 -113 l-523 -5 0 776
0 776 -760 0 -760 0 0 1515 0 1515 -910 0 -910 0 0 -755z m1570 -150 l0 -655
-660 0 -660 0 0 655 0 655 660 0 660 0 0 -655z m-3040 -1520 l0 -655 -655 0
-655 0 0 655 0 655 655 0 655 0 0 -655z m1520 0 l0 -655 -655 0 -655 0 0 655
0 655 655 0 655 0 0 -655z m1520 0 l0 -655 -660 0 -660 0 0 655 0 655 660 0
660 0 0 -655z m-4552 -1517 l2 -658 -660 0 -660 0 0 660 0 660 658 -2 657 -3
3 -657z m1512 2 l0 -660 -655 0 -655 0 0 660 0 660 655 0 655 0 0 -660z m1520
0 l0 -660 -655 0 -655 0 0 660 0 660 655 0 655 0 0 -660z m1518 -2 l2 -658
-660 0 -660 0 0 653 c0 360 3 657 7 660 3 4 299 6 657 5 l651 -3 3 -657z
m1512 2 l0 -660 -655 0 -655 0 0 660 0 660 655 0 655 0 0 -660z m-4529 -2806
c107 -31 188 -104 239 -215 14 -33 20 -66 20 -129 0 -74 -4 -93 -29 -147 -40
-85 -98 -144 -174 -179 -55 -26 -73 -29 -157 -29 -88 0 -101 3 -163 33 -79 39
-144 113 -178 202 -30 78 -23 194 15 268 85 168 256 246 427 196z m-743 -1086
c178 -373 482 -750 822 -1023 206 -165 389 -283 643 -415 l128 -67 -62 -7
c-34 -3 -146 -6 -248 -6 -760 0 -1395 91 -1954 281 -631 213 -1149 531 -1702
1045 -74 69 -135 130 -135 135 0 6 15 7 38 3 67 -14 1144 -10 1307 4 464 40
793 90 1030 156 28 8 55 15 62 15 7 1 38 -54 71 -121z"/>
<path d="M6330 9145 l0 -545 55 0 55 0 0 545 0 545 -55 0 -55 0 0 -545z"/>
<path d="M6530 9145 l0 -545 55 0 55 0 0 545 0 545 -55 0 -55 0 0 -545z"/>
<path d="M6730 9145 l0 -545 50 0 50 0 0 545 0 545 -50 0 -50 0 0 -545z"/>
<path d="M6930 9145 l0 -545 50 0 50 0 0 545 0 545 -50 0 -50 0 0 -545z"/>
<path d="M7130 9145 l0 -545 50 0 50 0 0 545 0 545 -50 0 -50 0 0 -545z"/>
<path d="M7320 9145 l0 -545 55 0 55 0 0 545 0 545 -55 0 -55 0 0 -545z"/>
<path d="M3300 7625 l0 -545 50 0 50 0 0 545 0 545 -50 0 -50 0 0 -545z"/>
<path d="M3490 7625 l0 -545 55 0 55 0 0 545 0 545 -55 0 -55 0 0 -545z"/>
<path d="M3690 7625 l0 -545 55 0 55 0 0 545 0 545 -55 0 -55 0 0 -545z"/>
<path d="M3890 7625 l0 -545 55 0 55 0 0 545 0 545 -55 0 -55 0 0 -545z"/>
<path d="M4090 7625 l0 -545 55 0 55 0 0 545 0 545 -55 0 -55 0 0 -545z"/>
<path d="M4290 7625 l0 -545 50 0 50 0 0 545 0 545 -50 0 -50 0 0 -545z"/>
<path d="M4820 7625 l0 -545 50 0 50 0 0 545 0 545 -50 0 -50 0 0 -545z"/>
<path d="M5010 7625 l0 -545 55 0 55 0 0 545 0 545 -55 0 -55 0 0 -545z"/>
<path d="M5210 7625 l0 -545 55 0 55 0 0 545 0 545 -55 0 -55 0 0 -545z"/>
<path d="M5410 7625 l0 -545 55 0 55 0 0 545 0 545 -55 0 -55 0 0 -545z"/>
<path d="M5610 7625 l0 -545 55 0 55 0 0 545 0 545 -55 0 -55 0 0 -545z"/>
<path d="M5810 7625 l0 -545 50 0 50 0 0 545 0 545 -50 0 -50 0 0 -545z"/>
<path d="M6330 7625 l0 -545 55 0 55 0 0 545 0 545 -55 0 -55 0 0 -545z"/>
<path d="M6530 7625 l0 -545 55 0 55 0 0 545 0 545 -55 0 -55 0 0 -545z"/>
<path d="M6730 7625 l0 -545 50 0 50 0 0 545 0 545 -50 0 -50 0 0 -545z"/>
<path d="M6930 7625 l0 -545 50 0 50 0 0 545 0 545 -50 0 -50 0 0 -545z"/>
<path d="M7130 7625 l0 -545 50 0 50 0 0 545 0 545 -50 0 -50 0 0 -545z"/>
<path d="M7320 7625 l0 -545 55 0 55 0 0 545 0 545 -55 0 -55 0 0 -545z"/>
<path d="M1780 6110 l0 -551 53 3 52 3 0 545 0 545 -52 3 -53 3 0 -551z"/>
<path d="M1980 6110 l0 -550 50 0 50 0 0 550 0 550 -50 0 -50 0 0 -550z"/>
<path d="M2180 6110 l0 -550 50 0 50 0 0 550 0 550 -50 0 -50 0 0 -550z"/>
<path d="M2380 6110 l0 -550 50 0 50 0 0 550 0 550 -50 0 -50 0 0 -550z"/>
<path d="M2575 6648 c-3 -7 -4 -254 -3 -548 l3 -535 53 -3 52 -3 0 550 0 551
-50 0 c-31 0 -52 -5 -55 -12z"/>
<path d="M2777 6653 c-4 -3 -7 -251 -7 -550 l0 -543 55 0 55 0 0 550 0 550
-48 0 c-27 0 -52 -3 -55 -7z"/>
<path d="M3300 6110 l0 -550 50 0 50 0 0 550 0 550 -50 0 -50 0 0 -550z"/>
<path d="M3497 6653 c-4 -3 -7 -251 -7 -550 l0 -543 55 0 55 0 0 550 0 550
-48 0 c-27 0 -52 -3 -55 -7z"/>
<path d="M3697 6653 c-4 -3 -7 -251 -7 -550 l0 -543 55 0 55 0 0 550 0 550
-48 0 c-27 0 -52 -3 -55 -7z"/>
<path d="M3890 6110 l0 -550 55 0 55 0 0 550 0 550 -55 0 -55 0 0 -550z"/>
<path d="M4090 6110 l0 -550 55 0 55 0 0 550 0 550 -55 0 -55 0 0 -550z"/>
<path d="M4290 6110 l0 -550 50 0 50 0 0 550 0 550 -50 0 -50 0 0 -550z"/>
<path d="M4820 6110 l0 -550 50 0 50 0 0 550 0 550 -50 0 -50 0 0 -550z"/>
<path d="M5010 6110 l0 -550 55 0 55 0 0 550 0 550 -55 0 -55 0 0 -550z"/>
<path d="M5210 6110 l0 -550 55 0 55 0 0 550 0 550 -55 0 -55 0 0 -550z"/>
<path d="M5410 6111 l0 -551 55 0 55 0 -2 548 -3 547 -52 3 -53 3 0 -550z"/>
<path d="M5610 6111 l0 -551 55 0 55 0 -2 548 -3 547 -52 3 -53 3 0 -550z"/>
<path d="M5810 6110 l0 -550 50 0 50 0 0 550 0 550 -50 0 -50 0 0 -550z"/>
<path d="M6330 6111 l0 -551 55 0 55 0 -2 548 -3 547 -52 3 -53 3 0 -550z"/>
<path d="M6530 6110 l0 -551 53 3 52 3 0 545 0 545 -52 3 -53 3 0 -551z"/>
<path d="M6730 6110 l0 -550 50 0 50 0 0 550 0 550 -50 0 -50 0 0 -550z"/>
<path d="M6930 6110 l0 -550 50 0 50 0 0 550 0 550 -50 0 -50 0 0 -550z"/>
<path d="M7130 6110 l0 -550 50 0 50 0 0 550 0 550 -50 0 -50 0 0 -550z"/>
<path d="M7325 6648 c-3 -7 -4 -254 -3 -548 l3 -535 53 -3 52 -3 0 550 0 551
-50 0 c-31 0 -52 -5 -55 -12z"/>
<path d="M7850 6110 l0 -550 50 0 50 0 0 550 0 550 -50 0 -50 0 0 -550z"/>
<path d="M8045 6648 c-3 -7 -4 -254 -3 -548 l3 -535 53 -3 52 -3 0 550 0 551
-50 0 c-31 0 -52 -5 -55 -12z"/>
<path d="M8247 6653 c-4 -3 -7 -251 -7 -550 l0 -543 55 0 55 0 0 550 0 550
-48 0 c-27 0 -52 -3 -55 -7z"/>
<path d="M8440 6110 l0 -550 55 0 55 0 0 550 0 550 -55 0 -55 0 0 -550z"/>
<path d="M8640 6110 l0 -550 55 0 55 0 0 550 0 550 -55 0 -55 0 0 -550z"/>
<path d="M8840 6110 l0 -550 50 0 50 0 0 550 0 550 -50 0 -50 0 0 -550z"/>
<path d="M4370 3211 c-89 -19 -149 -70 -191 -166 -49 -111 8 -255 125 -318 32
-17 58 -22 121 -22 74 0 85 3 130 32 87 56 130 142 122 241 -3 35 -8 66 -11
69 -3 4 -16 -3 -29 -14 -67 -62 -177 -12 -177 81 0 13 11 38 25 54 14 17 22
33 18 35 -17 10 -100 15 -133 8z"/>
</g>
</svg>
